<svg xmlns="http://www.w3.org/2000/svg" width="880" height="710" viewBox="0 0 880 710"><rect width="880" height="710" fill="#FBFBF8"/><rect x="0.0" y="0.0" width="880.0" height="710.0" rx="0" fill="#FFF8E7" fill-opacity="1" stroke="none" stroke-width="1"/><rect x="30.0" y="30.0" width="820.0" height="580.0" rx="24" fill="none" fill-opacity="1" stroke="#1D3557" stroke-width="3"/><circle cx="73.0" cy="131.0" r="6.0" fill="#FFD60A" fill-opacity="0.35" stroke="none" stroke-width="1"/><circle cx="820.0" cy="90.0" r="6.0" fill="#FFD60A" fill-opacity="0.35" stroke="none" stroke-width="1"/><circle cx="120.0" cy="520.0" r="6.0" fill="#FFD60A" fill-opacity="0.35" stroke="none" stroke-width="1"/><circle cx="770.0" cy="540.0" r="6.0" fill="#FFD60A" fill-opacity="0.35" stroke="none" stroke-width="1"/><circle cx="420.0" cy="70.0" r="6.0" fill="#FFD60A" fill-opacity="0.35" stroke="none" stroke-width="1"/><circle cx="640.0" cy="560.0" r="6.0" fill="#FFD60A" fill-opacity="0.35" stroke="none" stroke-width="1"/><circle cx="60.0" cy="300.0" r="6.0" fill="#FFD60A" fill-opacity="0.35" stroke="none" stroke-width="1"/><circle cx="800.0" cy="330.0" r="6.0" fill="#FFD60A" fill-opacity="0.35" stroke="none" stroke-width="1"/><text x="440.0" y="64.0" font-family="DejaVu Sans, Arial, sans-serif" font-size="34" fill="#1D3557" text-anchor="middle" font-weight="bold">¡A JUGAR!</text><text x="440.0" y="88.0" font-family="DejaVu Sans, Arial, sans-serif" font-size="15" fill="#6B705C" text-anchor="middle" font-weight="normal">tapete interactivo</text><circle cx="240.0" cy="247.6" r="70.0" fill="#E63946" fill-opacity="0.12" stroke="none" stroke-width="1"/><circle cx="240.0" cy="247.6" r="54.0" fill="#E63946" fill-opacity="0.55" stroke="#E63946" stroke-width="4"/><circle cx="240.0" cy="247.6" r="54.0" fill="#FFFFFF" fill-opacity="0.18" stroke="none" stroke-width="1"/><text x="240.0" y="253.6" font-family="DejaVu Sans, Arial, sans-serif" font-size="46" fill="#FFFFFF" text-anchor="middle" font-weight="bold">1</text><path d="M240.0,266.6 L243.2,274.2 L251.4,274.9 L245.1,280.3 L247.1,288.3 L240.0,284.0 L232.9,288.3 L234.9,280.3 L228.6,274.9 L236.8,274.2 Z" fill="#FFFFFF" fill-opacity="1" stroke="none" stroke-width="1"/><circle cx="440.0" cy="247.6" r="70.0" fill="#FFD60A" fill-opacity="0.12" stroke="none" stroke-width="1"/><circle cx="440.0" cy="247.6" r="54.0" fill="#FFD60A" fill-opacity="0.55" stroke="#FFD60A" stroke-width="4"/><circle cx="440.0" cy="247.6" r="54.0" fill="#FFFFFF" fill-opacity="0.18" stroke="none" stroke-width="1"/><text x="440.0" y="253.6" font-family="DejaVu Sans, Arial, sans-serif" font-size="46" fill="#1D3557" text-anchor="middle" font-weight="bold">2</text><path d="M 440.0 288.2 C 424.4 276.2 434.0 266.6 440.0 274.4 C 446.0 266.6 455.6 276.2 440.0 288.2 Z" fill="#1D3557" fill-opacity="1" stroke="none" stroke-width="1"/><circle cx="640.0" cy="247.6" r="70.0" fill="#2A9D8F" fill-opacity="0.12" stroke="none" stroke-width="1"/><circle cx="640.0" cy="247.6" r="54.0" fill="#2A9D8F" fill-opacity="0.55" stroke="#2A9D8F" stroke-width="4"/><circle cx="640.0" cy="247.6" r="54.0" fill="#FFFFFF" fill-opacity="0.18" stroke="none" stroke-width="1"/><text x="640.0" y="253.6" font-family="DejaVu Sans, Arial, sans-serif" font-size="46" fill="#FFFFFF" text-anchor="middle" font-weight="bold">3</text><circle cx="640.0" cy="278.6" r="9.6" fill="#FFFFFF" fill-opacity="1" stroke="none" stroke-width="1"/><circle cx="240.0" cy="411.6" r="70.0" fill="#0077B6" fill-opacity="0.12" stroke="none" stroke-width="1"/><circle cx="240.0" cy="411.6" r="54.0" fill="#0077B6" fill-opacity="0.55" stroke="#0077B6" stroke-width="4"/><circle cx="240.0" cy="411.6" r="54.0" fill="#FFFFFF" fill-opacity="0.18" stroke="none" stroke-width="1"/><text x="240.0" y="417.6" font-family="DejaVu Sans, Arial, sans-serif" font-size="46" fill="#FFFFFF" text-anchor="middle" font-weight="bold">4</text><rect x="231.6" y="434.2" width="16.8" height="16.8" rx="3" fill="#FFFFFF" fill-opacity="1" stroke="none" stroke-width="1"/><circle cx="440.0" cy="411.6" r="70.0" fill="#F77F00" fill-opacity="0.12" stroke="none" stroke-width="1"/><circle cx="440.0" cy="411.6" r="54.0" fill="#F77F00" fill-opacity="0.55" stroke="#F77F00" stroke-width="4"/><circle cx="440.0" cy="411.6" r="54.0" fill="#FFFFFF" fill-opacity="0.18" stroke="none" stroke-width="1"/><text x="440.0" y="417.6" font-family="DejaVu Sans, Arial, sans-serif" font-size="46" fill="#FFFFFF" text-anchor="middle" font-weight="bold">5</text><path d="M 440.0 430.6 L 450.8 451.0 L 429.2 451.0 Z" fill="#FFFFFF" fill-opacity="1" stroke="none" stroke-width="1"/><circle cx="640.0" cy="411.6" r="70.0" fill="#7B2CBF" fill-opacity="0.12" stroke="none" stroke-width="1"/><circle cx="640.0" cy="411.6" r="54.0" fill="#7B2CBF" fill-opacity="0.55" stroke="#7B2CBF" stroke-width="4"/><circle cx="640.0" cy="411.6" r="54.0" fill="#FFFFFF" fill-opacity="0.18" stroke="none" stroke-width="1"/><text x="640.0" y="417.6" font-family="DejaVu Sans, Arial, sans-serif" font-size="46" fill="#FFFFFF" text-anchor="middle" font-weight="bold">6</text><path d="M 640.0 430.6 L 649.6 442.6 L 640.0 454.6 L 630.4 442.6 Z" fill="#FFFFFF" fill-opacity="1" stroke="none" stroke-width="1"/><text x="440.0" y="684.0" font-family="DejaVu Sans, Arial, sans-serif" font-size="11.5" fill="#6B705C" text-anchor="middle" font-weight="normal">Cada botón se enciende (LED blanco bajo ventana translúcida) · imprimir en film translúcido / backlit</text></svg>