<svg xmlns="http://www.w3.org/2000/svg" width="1480" height="1000" viewBox="0 0 1480 1000"><rect width="1480" height="1000" fill="#FBFBF8"/><rect x="0.0" y="0.0" width="1480.0" height="70.0" rx="0" fill="#2B3A55" fill-opacity="1" stroke="none" stroke-width="1"/><text x="30.0" y="34.0" font-family="DejaVu Sans, Arial, sans-serif" font-size="24" fill="#FFFFFF" text-anchor="start" font-weight="bold" style="">Tapete Interactivo — Esquema eléctrico</text><text x="30.0" y="56.0" font-family="DejaVu Sans, Arial, sans-serif" font-size="13" fill="#CBD3E0" text-anchor="start" font-weight="normal" style="">ESP32 DevKit · 6 FSR (3V3) · 6 grupos LED vía ULN2803A (5V) · DFPlayer Mini · alimentación USB-C</text><text x="1450.0" y="40.0" font-family="DejaVu Sans, Arial, sans-serif" font-size="18" fill="#FFD60A" text-anchor="end" font-weight="bold" style="">Plano A-1</text><line x1="60.0" y1="92.0" x2="1420.0" y2="92.0" stroke="#222222" stroke-width="3" stroke-linecap="round"/><text x="64.0" y="86.0" font-family="DejaVu Sans, Arial, sans-serif" font-size="12" fill="#222222" text-anchor="start" font-weight="bold" style="">GND (rieles − comunes)</text><line x1="60.0" y1="110.0" x2="760.0" y2="110.0" stroke="#F77F00" stroke-width="3" stroke-linecap="round"/><text x="64.0" y="104.0" font-family="DejaVu Sans, Arial, sans-serif" font-size="12" fill="#F77F00" text-anchor="start" font-weight="bold" style="">3V3  (riel superior +)</text><line x1="720.0" y1="132.0" x2="1420.0" y2="132.0" stroke="#E63946" stroke-width="3" stroke-linecap="round"/><text x="1416.0" y="126.0" font-family="DejaVu Sans, Arial, sans-serif" font-size="12" fill="#E63946" text-anchor="end" font-weight="bold" style="">5V  (riel inferior +, desde VIN)</text><rect x="770.0" y="98.0" width="150.0" height="30.0" rx="6" fill="#FFF3F0" fill-opacity="1" stroke="#E63946" stroke-width="1"/><text x="845.0" y="117.0" font-family="DejaVu Sans, Arial, sans-serif" font-size="11" fill="#E63946" text-anchor="middle" font-weight="bold" style="">⚠ 3V3 ≠ 5V: no unir</text><rect x="600.0" y="230.0" width="230.0" height="560.0" rx="10" fill="#2B3A55" fill-opacity="1" stroke="none" stroke-width="1"/><text x="715.0" y="256.0" font-family="DejaVu Sans, Arial, sans-serif" font-size="22" fill="#FFFFFF" text-anchor="middle" font-weight="bold" style="">ESP32</text><text x="715.0" y="276.0" font-family="DejaVu Sans, Arial, sans-serif" font-size="12" fill="#CBD3E0" text-anchor="middle" font-weight="normal" style="">DevKit 30 pines</text><line x1="600.0" y1="340.0" x2="578.0" y2="340.0" stroke="#0077B6" stroke-width="2" stroke-linecap="round"/><circle cx="578.0" cy="340.0" r="3.0" fill="#0077B6" stroke="none" stroke-width="1"/><text x="608.0" y="333.0" font-family="DejaVu Sans, Arial, sans-serif" font-size="10.5" fill="#FFFFFF" text-anchor="start" font-weight="normal" style="">VP / GPIO36</text><line x1="600.0" y1="410.0" x2="578.0" y2="410.0" stroke="#0077B6" stroke-width="2" stroke-linecap="round"/><circle cx="578.0" cy="410.0" r="3.0" fill="#0077B6" stroke="none" stroke-width="1"/><text x="608.0" y="403.0" font-family="DejaVu Sans, Arial, sans-serif" font-size="10.5" fill="#FFFFFF" text-anchor="start" font-weight="normal" style="">VN / GPIO39</text><line x1="600.0" y1="480.0" x2="578.0" y2="480.0" stroke="#0077B6" stroke-width="2" stroke-linecap="round"/><circle cx="578.0" cy="480.0" r="3.0" fill="#0077B6" stroke="none" stroke-width="1"/><text x="608.0" y="473.0" font-family="DejaVu Sans, Arial, sans-serif" font-size="10.5" fill="#FFFFFF" text-anchor="start" font-weight="normal" style="">D34 / GPIO34</text><line x1="600.0" y1="550.0" x2="578.0" y2="550.0" stroke="#0077B6" stroke-width="2" stroke-linecap="round"/><circle cx="578.0" cy="550.0" r="3.0" fill="#0077B6" stroke="none" stroke-width="1"/><text x="608.0" y="543.0" font-family="DejaVu Sans, Arial, sans-serif" font-size="10.5" fill="#FFFFFF" text-anchor="start" font-weight="normal" style="">D35 / GPIO35</text><line x1="600.0" y1="620.0" x2="578.0" y2="620.0" stroke="#0077B6" stroke-width="2" stroke-linecap="round"/><circle cx="578.0" cy="620.0" r="3.0" fill="#0077B6" stroke="none" stroke-width="1"/><text x="608.0" y="613.0" font-family="DejaVu Sans, Arial, sans-serif" font-size="10.5" fill="#FFFFFF" text-anchor="start" font-weight="normal" style="">D32 / GPIO32</text><line x1="600.0" y1="690.0" x2="578.0" y2="690.0" stroke="#0077B6" stroke-width="2" stroke-linecap="round"/><circle cx="578.0" cy="690.0" r="3.0" fill="#0077B6" stroke="none" stroke-width="1"/><text x="608.0" y="683.0" font-family="DejaVu Sans, Arial, sans-serif" font-size="10.5" fill="#FFFFFF" text-anchor="start" font-weight="normal" style="">D33 / GPIO33</text><line x1="640.0" y1="230.0" x2="640.0" y2="110.0" stroke="#F77F00" stroke-width="2" stroke-linecap="round"/><circle cx="640.0" cy="110.0" r="3.0" fill="#F77F00" stroke="none" stroke-width="1"/><text x="644.0" y="224.0" font-family="DejaVu Sans, Arial, sans-serif" font-size="11" fill="#F77F00" text-anchor="start" font-weight="bold" style="">3V3</text><line x1="690.0" y1="230.0" x2="690.0" y2="92.0" stroke="#222222" stroke-width="2" stroke-linecap="round"/><circle cx="690.0" cy="92.0" r="3.0" fill="#222222" stroke="none" stroke-width="1"/><text x="694.0" y="224.0" font-family="DejaVu Sans, Arial, sans-serif" font-size="11" fill="#222222" text-anchor="start" font-weight="bold" style="">GND</text><line x1="830.0" y1="340.0" x2="852.0" y2="340.0" stroke="#2A9D8F" stroke-width="2" stroke-linecap="round"/><circle cx="852.0" cy="340.0" r="3.0" fill="#2A9D8F" stroke="none" stroke-width="1"/><text x="822.0" y="333.0" font-family="DejaVu Sans, Arial, sans-serif" font-size="10.5" fill="#FFFFFF" text-anchor="end" font-weight="normal" style="">GPIO4 / D4</text><line x1="830.0" y1="410.0" x2="852.0" y2="410.0" stroke="#2A9D8F" stroke-width="2" stroke-linecap="round"/><circle cx="852.0" cy="410.0" r="3.0" fill="#2A9D8F" stroke="none" stroke-width="1"/><text x="822.0" y="403.0" font-family="DejaVu Sans, Arial, sans-serif" font-size="10.5" fill="#FFFFFF" text-anchor="end" font-weight="normal" style="">GPIO5 / D5</text><line x1="830.0" y1="480.0" x2="852.0" y2="480.0" stroke="#2A9D8F" stroke-width="2" stroke-linecap="round"/><circle cx="852.0" cy="480.0" r="3.0" fill="#2A9D8F" stroke="none" stroke-width="1"/><text x="822.0" y="473.0" font-family="DejaVu Sans, Arial, sans-serif" font-size="10.5" fill="#FFFFFF" text-anchor="end" font-weight="normal" style="">GPIO18 / D18</text><line x1="830.0" y1="550.0" x2="852.0" y2="550.0" stroke="#2A9D8F" stroke-width="2" stroke-linecap="round"/><circle cx="852.0" cy="550.0" r="3.0" fill="#2A9D8F" stroke="none" stroke-width="1"/><text x="822.0" y="543.0" font-family="DejaVu Sans, Arial, sans-serif" font-size="10.5" fill="#FFFFFF" text-anchor="end" font-weight="normal" style="">GPIO19 / D19</text><line x1="830.0" y1="620.0" x2="852.0" y2="620.0" stroke="#2A9D8F" stroke-width="2" stroke-linecap="round"/><circle cx="852.0" cy="620.0" r="3.0" fill="#2A9D8F" stroke="none" stroke-width="1"/><text x="822.0" y="613.0" font-family="DejaVu Sans, Arial, sans-serif" font-size="10.5" fill="#FFFFFF" text-anchor="end" font-weight="normal" style="">GPIO21 / D21</text><line x1="830.0" y1="690.0" x2="852.0" y2="690.0" stroke="#2A9D8F" stroke-width="2" stroke-linecap="round"/><circle cx="852.0" cy="690.0" r="3.0" fill="#2A9D8F" stroke="none" stroke-width="1"/><text x="822.0" y="683.0" font-family="DejaVu Sans, Arial, sans-serif" font-size="10.5" fill="#FFFFFF" text-anchor="end" font-weight="normal" style="">GPIO23 / D23</text><line x1="790.0" y1="790.0" x2="790.0" y2="132.0" stroke="#E63946" stroke-width="2" stroke-linecap="round"/><circle cx="790.0" cy="132.0" r="3.0" fill="#E63946" stroke="none" stroke-width="1"/><text x="794.0" y="804.0" font-family="DejaVu Sans, Arial, sans-serif" font-size="11" fill="#E63946" text-anchor="start" font-weight="bold" style="">VIN ≈ 5V</text><line x1="710.0" y1="790.0" x2="710.0" y2="850.0" stroke="#9C6644" stroke-width="2" stroke-linecap="round"/><text x="714.0" y="804.0" font-family="DejaVu Sans, Arial, sans-serif" font-size="10" fill="#9C6644" text-anchor="start" font-weight="normal" style="">TX2/17</text><line x1="680.0" y1="790.0" x2="680.0" y2="850.0" stroke="#9C6644" stroke-width="2" stroke-linecap="round"/><text x="630.0" y="804.0" font-family="DejaVu Sans, Arial, sans-serif" font-size="10" fill="#9C6644" text-anchor="start" font-weight="normal" style="">RX2/16</text><line x1="120.0" y1="110.0" x2="120.0" y2="340.0" stroke="#F77F00" stroke-width="2" stroke-linecap="round"/><circle cx="120.0" cy="340.0" r="3.0" fill="#F77F00" stroke="none" stroke-width="1"/><polyline points="140.0,340.0 150.0,348.0 160.0,332.0 170.0,348.0 180.0,332.0 190.0,348.0 200.0,332.0 210.0,340.0" fill="none" stroke="#118AB2" stroke-width="2" stroke-linejoin="round" stroke-linecap="round"/><line x1="150" y1="326.0" x2="206" y2="354.0" stroke="#118AB2" stroke-width="1.5"/><text x="175.0" y="322.0" font-family="DejaVu Sans, Arial, sans-serif" font-size="11" fill="#118AB2" text-anchor="middle" font-weight="bold" style="">FSR1</text><line x1="120.0" y1="340.0" x2="140.0" y2="340.0" stroke="#F77F00" stroke-width="2" stroke-linecap="round"/><line x1="210.0" y1="340.0" x2="360.0" y2="340.0" stroke="#1D3557" stroke-width="2" stroke-linecap="round"/><circle cx="360.0" cy="340.0" r="4.0" fill="#0077B6" stroke="none" stroke-width="1"/><line x1="360.0" y1="340.0" x2="578.0" y2="340.0" stroke="#0077B6" stroke-width="2" stroke-linecap="round"/><polyline points="360.0,348.0 367.0,354.3 353.0,360.6 367.0,366.9 353.0,373.1 367.0,379.4 353.0,385.7 360.0,392.0" fill="none" stroke="#222222" stroke-width="2" stroke-linejoin="round" stroke-linecap="round"/><text x="371.0" y="374.0" font-family="DejaVu Sans, Arial, sans-serif" font-size="11" fill="#222222" text-anchor="start" font-weight="bold" style="">10kΩ</text><line x1="360.0" y1="392.0" x2="360.0" y2="92.0" stroke="#222222" stroke-width="2" stroke-linecap="round"/><circle cx="360.0" cy="92.0" r="3.0" fill="#222222" stroke="none" stroke-width="1"/><text x="110.0" y="356.0" font-family="DejaVu Sans, Arial, sans-serif" font-size="9.5" fill="#6B705C" text-anchor="start" font-weight="normal" style="">← cable FSR1 (FSR del botón)</text><line x1="120.0" y1="110.0" x2="120.0" y2="410.0" stroke="#F77F00" stroke-width="2" stroke-linecap="round"/><circle cx="120.0" cy="410.0" r="3.0" fill="#F77F00" stroke="none" stroke-width="1"/><polyline points="140.0,410.0 150.0,418.0 160.0,402.0 170.0,418.0 180.0,402.0 190.0,418.0 200.0,402.0 210.0,410.0" fill="none" stroke="#118AB2" stroke-width="2" stroke-linejoin="round" stroke-linecap="round"/><line x1="150" y1="396.0" x2="206" y2="424.0" stroke="#118AB2" stroke-width="1.5"/><text x="175.0" y="392.0" font-family="DejaVu Sans, Arial, sans-serif" font-size="11" fill="#118AB2" text-anchor="middle" font-weight="bold" style="">FSR2</text><line x1="120.0" y1="410.0" x2="140.0" y2="410.0" stroke="#F77F00" stroke-width="2" stroke-linecap="round"/><line x1="210.0" y1="410.0" x2="360.0" y2="410.0" stroke="#1D3557" stroke-width="2" stroke-linecap="round"/><circle cx="360.0" cy="410.0" r="4.0" fill="#0077B6" stroke="none" stroke-width="1"/><line x1="360.0" y1="410.0" x2="578.0" y2="410.0" stroke="#0077B6" stroke-width="2" stroke-linecap="round"/><polyline points="360.0,418.0 367.0,424.3 353.0,430.6 367.0,436.9 353.0,443.1 367.0,449.4 353.0,455.7 360.0,462.0" fill="none" stroke="#222222" stroke-width="2" stroke-linejoin="round" stroke-linecap="round"/><text x="371.0" y="444.0" font-family="DejaVu Sans, Arial, sans-serif" font-size="11" fill="#222222" text-anchor="start" font-weight="bold" style="">10kΩ</text><line x1="360.0" y1="462.0" x2="360.0" y2="92.0" stroke="#222222" stroke-width="2" stroke-linecap="round"/><circle cx="360.0" cy="92.0" r="3.0" fill="#222222" stroke="none" stroke-width="1"/><text x="110.0" y="426.0" font-family="DejaVu Sans, Arial, sans-serif" font-size="9.5" fill="#6B705C" text-anchor="start" font-weight="normal" style="">← cable FSR2 (FSR del botón)</text><line x1="120.0" y1="110.0" x2="120.0" y2="480.0" stroke="#F77F00" stroke-width="2" stroke-linecap="round"/><circle cx="120.0" cy="480.0" r="3.0" fill="#F77F00" stroke="none" stroke-width="1"/><polyline points="140.0,480.0 150.0,488.0 160.0,472.0 170.0,488.0 180.0,472.0 190.0,488.0 200.0,472.0 210.0,480.0" fill="none" stroke="#118AB2" stroke-width="2" stroke-linejoin="round" stroke-linecap="round"/><line x1="150" y1="466.0" x2="206" y2="494.0" stroke="#118AB2" stroke-width="1.5"/><text x="175.0" y="462.0" font-family="DejaVu Sans, Arial, sans-serif" font-size="11" fill="#118AB2" text-anchor="middle" font-weight="bold" style="">FSR3</text><line x1="120.0" y1="480.0" x2="140.0" y2="480.0" stroke="#F77F00" stroke-width="2" stroke-linecap="round"/><line x1="210.0" y1="480.0" x2="360.0" y2="480.0" stroke="#1D3557" stroke-width="2" stroke-linecap="round"/><circle cx="360.0" cy="480.0" r="4.0" fill="#0077B6" stroke="none" stroke-width="1"/><line x1="360.0" y1="480.0" x2="578.0" y2="480.0" stroke="#0077B6" stroke-width="2" stroke-linecap="round"/><polyline points="360.0,488.0 367.0,494.3 353.0,500.6 367.0,506.9 353.0,513.1 367.0,519.4 353.0,525.7 360.0,532.0" fill="none" stroke="#222222" stroke-width="2" stroke-linejoin="round" stroke-linecap="round"/><text x="371.0" y="514.0" font-family="DejaVu Sans, Arial, sans-serif" font-size="11" fill="#222222" text-anchor="start" font-weight="bold" style="">10kΩ</text><line x1="360.0" y1="532.0" x2="360.0" y2="92.0" stroke="#222222" stroke-width="2" stroke-linecap="round"/><circle cx="360.0" cy="92.0" r="3.0" fill="#222222" stroke="none" stroke-width="1"/><text x="110.0" y="496.0" font-family="DejaVu Sans, Arial, sans-serif" font-size="9.5" fill="#6B705C" text-anchor="start" font-weight="normal" style="">← cable FSR3 (FSR del botón)</text><line x1="120.0" y1="110.0" x2="120.0" y2="550.0" stroke="#F77F00" stroke-width="2" stroke-linecap="round"/><circle cx="120.0" cy="550.0" r="3.0" fill="#F77F00" stroke="none" stroke-width="1"/><polyline points="140.0,550.0 150.0,558.0 160.0,542.0 170.0,558.0 180.0,542.0 190.0,558.0 200.0,542.0 210.0,550.0" fill="none" stroke="#118AB2" stroke-width="2" stroke-linejoin="round" stroke-linecap="round"/><line x1="150" y1="536.0" x2="206" y2="564.0" stroke="#118AB2" stroke-width="1.5"/><text x="175.0" y="532.0" font-family="DejaVu Sans, Arial, sans-serif" font-size="11" fill="#118AB2" text-anchor="middle" font-weight="bold" style="">FSR4</text><line x1="120.0" y1="550.0" x2="140.0" y2="550.0" stroke="#F77F00" stroke-width="2" stroke-linecap="round"/><line x1="210.0" y1="550.0" x2="360.0" y2="550.0" stroke="#1D3557" stroke-width="2" stroke-linecap="round"/><circle cx="360.0" cy="550.0" r="4.0" fill="#0077B6" stroke="none" stroke-width="1"/><line x1="360.0" y1="550.0" x2="578.0" y2="550.0" stroke="#0077B6" stroke-width="2" stroke-linecap="round"/><polyline points="360.0,558.0 367.0,564.3 353.0,570.6 367.0,576.9 353.0,583.1 367.0,589.4 353.0,595.7 360.0,602.0" fill="none" stroke="#222222" stroke-width="2" stroke-linejoin="round" stroke-linecap="round"/><text x="371.0" y="584.0" font-family="DejaVu Sans, Arial, sans-serif" font-size="11" fill="#222222" text-anchor="start" font-weight="bold" style="">10kΩ</text><line x1="360.0" y1="602.0" x2="360.0" y2="92.0" stroke="#222222" stroke-width="2" stroke-linecap="round"/><circle cx="360.0" cy="92.0" r="3.0" fill="#222222" stroke="none" stroke-width="1"/><text x="110.0" y="566.0" font-family="DejaVu Sans, Arial, sans-serif" font-size="9.5" fill="#6B705C" text-anchor="start" font-weight="normal" style="">← cable FSR4 (FSR del botón)</text><line x1="120.0" y1="110.0" x2="120.0" y2="620.0" stroke="#F77F00" stroke-width="2" stroke-linecap="round"/><circle cx="120.0" cy="620.0" r="3.0" fill="#F77F00" stroke="none" stroke-width="1"/><polyline points="140.0,620.0 150.0,628.0 160.0,612.0 170.0,628.0 180.0,612.0 190.0,628.0 200.0,612.0 210.0,620.0" fill="none" stroke="#118AB2" stroke-width="2" stroke-linejoin="round" stroke-linecap="round"/><line x1="150" y1="606.0" x2="206" y2="634.0" stroke="#118AB2" stroke-width="1.5"/><text x="175.0" y="602.0" font-family="DejaVu Sans, Arial, sans-serif" font-size="11" fill="#118AB2" text-anchor="middle" font-weight="bold" style="">FSR5</text><line x1="120.0" y1="620.0" x2="140.0" y2="620.0" stroke="#F77F00" stroke-width="2" stroke-linecap="round"/><line x1="210.0" y1="620.0" x2="360.0" y2="620.0" stroke="#1D3557" stroke-width="2" stroke-linecap="round"/><circle cx="360.0" cy="620.0" r="4.0" fill="#0077B6" stroke="none" stroke-width="1"/><line x1="360.0" y1="620.0" x2="578.0" y2="620.0" stroke="#0077B6" stroke-width="2" stroke-linecap="round"/><polyline points="360.0,628.0 367.0,634.3 353.0,640.6 367.0,646.9 353.0,653.1 367.0,659.4 353.0,665.7 360.0,672.0" fill="none" stroke="#222222" stroke-width="2" stroke-linejoin="round" stroke-linecap="round"/><text x="371.0" y="654.0" font-family="DejaVu Sans, Arial, sans-serif" font-size="11" fill="#222222" text-anchor="start" font-weight="bold" style="">10kΩ</text><line x1="360.0" y1="672.0" x2="360.0" y2="92.0" stroke="#222222" stroke-width="2" stroke-linecap="round"/><circle cx="360.0" cy="92.0" r="3.0" fill="#222222" stroke="none" stroke-width="1"/><text x="110.0" y="636.0" font-family="DejaVu Sans, Arial, sans-serif" font-size="9.5" fill="#6B705C" text-anchor="start" font-weight="normal" style="">← cable FSR5 (FSR del botón)</text><line x1="120.0" y1="110.0" x2="120.0" y2="690.0" stroke="#F77F00" stroke-width="2" stroke-linecap="round"/><circle cx="120.0" cy="690.0" r="3.0" fill="#F77F00" stroke="none" stroke-width="1"/><polyline points="140.0,690.0 150.0,698.0 160.0,682.0 170.0,698.0 180.0,682.0 190.0,698.0 200.0,682.0 210.0,690.0" fill="none" stroke="#118AB2" stroke-width="2" stroke-linejoin="round" stroke-linecap="round"/><line x1="150" y1="676.0" x2="206" y2="704.0" stroke="#118AB2" stroke-width="1.5"/><text x="175.0" y="672.0" font-family="DejaVu Sans, Arial, sans-serif" font-size="11" fill="#118AB2" text-anchor="middle" font-weight="bold" style="">FSR6</text><line x1="120.0" y1="690.0" x2="140.0" y2="690.0" stroke="#F77F00" stroke-width="2" stroke-linecap="round"/><line x1="210.0" y1="690.0" x2="360.0" y2="690.0" stroke="#1D3557" stroke-width="2" stroke-linecap="round"/><circle cx="360.0" cy="690.0" r="4.0" fill="#0077B6" stroke="none" stroke-width="1"/><line x1="360.0" y1="690.0" x2="578.0" y2="690.0" stroke="#0077B6" stroke-width="2" stroke-linecap="round"/><polyline points="360.0,698.0 367.0,704.3 353.0,710.6 367.0,716.9 353.0,723.1 367.0,729.4 353.0,735.7 360.0,742.0" fill="none" stroke="#222222" stroke-width="2" stroke-linejoin="round" stroke-linecap="round"/><text x="371.0" y="724.0" font-family="DejaVu Sans, Arial, sans-serif" font-size="11" fill="#222222" text-anchor="start" font-weight="bold" style="">10kΩ</text><line x1="360.0" y1="742.0" x2="360.0" y2="92.0" stroke="#222222" stroke-width="2" stroke-linecap="round"/><circle cx="360.0" cy="92.0" r="3.0" fill="#222222" stroke="none" stroke-width="1"/><text x="110.0" y="706.0" font-family="DejaVu Sans, Arial, sans-serif" font-size="9.5" fill="#6B705C" text-anchor="start" font-weight="normal" style="">← cable FSR6 (FSR del botón)</text><text x="120.0" y="130.0" font-family="DejaVu Sans, Arial, sans-serif" font-size="12" fill="#118AB2" text-anchor="start" font-weight="bold" style="">Divisores de voltaje (3V3 ─ FSR ─ nodo ─ 10kΩ ─ GND)</text><rect x="980.0" y="250.0" width="150.0" height="520.0" rx="8" fill="#33415C" fill-opacity="1" stroke="none" stroke-width="1"/><text x="1055.0" y="274.0" font-family="DejaVu Sans, Arial, sans-serif" font-size="18" fill="#FFFFFF" text-anchor="middle" font-weight="bold" style="">ULN2803A</text><text x="1055.0" y="292.0" font-family="DejaVu Sans, Arial, sans-serif" font-size="10" fill="#CBD3E0" text-anchor="middle" font-weight="normal" style="">driver de corriente (sink)</text><line x1="1055.0" y1="250.0" x2="1055.0" y2="132.0" stroke="#E63946" stroke-width="2" stroke-linecap="round"/><circle cx="1055.0" cy="132.0" r="3.0" fill="#E63946" stroke="none" stroke-width="1"/><text x="1061.0" y="244.0" font-family="DejaVu Sans, Arial, sans-serif" font-size="10" fill="#E63946" text-anchor="start" font-weight="normal" style="">COM → 5V</text><line x1="1100.0" y1="770.0" x2="1100.0" y2="940.0" stroke="#222222" stroke-width="2" stroke-linecap="round"/><text x="1104.0" y="784.0" font-family="DejaVu Sans, Arial, sans-serif" font-size="10" fill="#222222" text-anchor="start" font-weight="normal" style="">GND (pin 9)</text><line x1="852.0" y1="340.0" x2="980.0" y2="340.0" stroke="#2A9D8F" stroke-width="2" stroke-linecap="round"/><text x="974.0" y="334.0" font-family="DejaVu Sans, Arial, sans-serif" font-size="11" fill="#2A9D8F" text-anchor="end" font-weight="bold" style="">IN1</text><line x1="1130.0" y1="340.0" x2="1160.0" y2="340.0" stroke="#7B2CBF" stroke-width="2" stroke-linecap="round"/><text x="1136.0" y="334.0" font-family="DejaVu Sans, Arial, sans-serif" font-size="11" fill="#7B2CBF" text-anchor="start" font-weight="bold" style="">OUT1</text><line x1="852.0" y1="410.0" x2="980.0" y2="410.0" stroke="#2A9D8F" stroke-width="2" stroke-linecap="round"/><text x="974.0" y="404.0" font-family="DejaVu Sans, Arial, sans-serif" font-size="11" fill="#2A9D8F" text-anchor="end" font-weight="bold" style="">IN2</text><line x1="1130.0" y1="410.0" x2="1160.0" y2="410.0" stroke="#7B2CBF" stroke-width="2" stroke-linecap="round"/><text x="1136.0" y="404.0" font-family="DejaVu Sans, Arial, sans-serif" font-size="11" fill="#7B2CBF" text-anchor="start" font-weight="bold" style="">OUT2</text><line x1="852.0" y1="480.0" x2="980.0" y2="480.0" stroke="#2A9D8F" stroke-width="2" stroke-linecap="round"/><text x="974.0" y="474.0" font-family="DejaVu Sans, Arial, sans-serif" font-size="11" fill="#2A9D8F" text-anchor="end" font-weight="bold" style="">IN3</text><line x1="1130.0" y1="480.0" x2="1160.0" y2="480.0" stroke="#7B2CBF" stroke-width="2" stroke-linecap="round"/><text x="1136.0" y="474.0" font-family="DejaVu Sans, Arial, sans-serif" font-size="11" fill="#7B2CBF" text-anchor="start" font-weight="bold" style="">OUT3</text><line x1="852.0" y1="550.0" x2="980.0" y2="550.0" stroke="#2A9D8F" stroke-width="2" stroke-linecap="round"/><text x="974.0" y="544.0" font-family="DejaVu Sans, Arial, sans-serif" font-size="11" fill="#2A9D8F" text-anchor="end" font-weight="bold" style="">IN4</text><line x1="1130.0" y1="550.0" x2="1160.0" y2="550.0" stroke="#7B2CBF" stroke-width="2" stroke-linecap="round"/><text x="1136.0" y="544.0" font-family="DejaVu Sans, Arial, sans-serif" font-size="11" fill="#7B2CBF" text-anchor="start" font-weight="bold" style="">OUT4</text><line x1="852.0" y1="620.0" x2="980.0" y2="620.0" stroke="#2A9D8F" stroke-width="2" stroke-linecap="round"/><text x="974.0" y="614.0" font-family="DejaVu Sans, Arial, sans-serif" font-size="11" fill="#2A9D8F" text-anchor="end" font-weight="bold" style="">IN5</text><line x1="1130.0" y1="620.0" x2="1160.0" y2="620.0" stroke="#7B2CBF" stroke-width="2" stroke-linecap="round"/><text x="1136.0" y="614.0" font-family="DejaVu Sans, Arial, sans-serif" font-size="11" fill="#7B2CBF" text-anchor="start" font-weight="bold" style="">OUT5</text><line x1="852.0" y1="690.0" x2="980.0" y2="690.0" stroke="#2A9D8F" stroke-width="2" stroke-linecap="round"/><text x="974.0" y="684.0" font-family="DejaVu Sans, Arial, sans-serif" font-size="11" fill="#2A9D8F" text-anchor="end" font-weight="bold" style="">IN6</text><line x1="1130.0" y1="690.0" x2="1160.0" y2="690.0" stroke="#7B2CBF" stroke-width="2" stroke-linecap="round"/><text x="1136.0" y="684.0" font-family="DejaVu Sans, Arial, sans-serif" font-size="11" fill="#7B2CBF" text-anchor="start" font-weight="bold" style="">OUT6</text><line x1="1160.0" y1="340.0" x2="1180.0" y2="340.0" stroke="#7B2CBF" stroke-width="2" stroke-linecap="round"/><circle cx="1160.0" cy="340.0" r="3.0" fill="#7B2CBF" stroke="none" stroke-width="1"/><polyline points="1180.0,340.0 1187.1,348.0 1194.3,332.0 1201.4,348.0 1208.6,332.0 1215.7,348.0 1222.9,332.0 1230.0,340.0" fill="none" stroke="#E63946" stroke-width="2" stroke-linejoin="round" stroke-linecap="round"/><text x="1205.0" y="328.0" font-family="DejaVu Sans, Arial, sans-serif" font-size="10" fill="#E63946" text-anchor="middle" font-weight="bold" style="">110Ω</text><circle cx="1258.0" cy="340.0" r="11.0" fill="#FFF8E7" stroke="#2A9D8F" stroke-width="2"/><text x="1258.0" y="344.0" font-family="DejaVu Sans, Arial, sans-serif" font-size="11" fill="#2A9D8F" text-anchor="middle" font-weight="bold" style="">×3</text><line x1="1230.0" y1="340.0" x2="1247.0" y2="340.0" stroke="#E63946" stroke-width="2" stroke-linecap="round"/><line x1="1269.0" y1="340.0" x2="1160.0" y2="340.0" stroke="none" stroke-width="0" stroke-linecap="round"/><line x1="1160.0" y1="340.0" x2="1160.0" y2="132.0" stroke="#E63946" stroke-width="2" stroke-linecap="round"/><text x="1280.0" y="344.0" font-family="DejaVu Sans, Arial, sans-serif" font-size="10" fill="#6B705C" text-anchor="start" font-weight="normal" style="">LED1</text><line x1="1160.0" y1="410.0" x2="1180.0" y2="410.0" stroke="#7B2CBF" stroke-width="2" stroke-linecap="round"/><circle cx="1160.0" cy="410.0" r="3.0" fill="#7B2CBF" stroke="none" stroke-width="1"/><polyline points="1180.0,410.0 1187.1,418.0 1194.3,402.0 1201.4,418.0 1208.6,402.0 1215.7,418.0 1222.9,402.0 1230.0,410.0" fill="none" stroke="#E63946" stroke-width="2" stroke-linejoin="round" stroke-linecap="round"/><text x="1205.0" y="398.0" font-family="DejaVu Sans, Arial, sans-serif" font-size="10" fill="#E63946" text-anchor="middle" font-weight="bold" style="">110Ω</text><circle cx="1258.0" cy="410.0" r="11.0" fill="#FFF8E7" stroke="#2A9D8F" stroke-width="2"/><text x="1258.0" y="414.0" font-family="DejaVu Sans, Arial, sans-serif" font-size="11" fill="#2A9D8F" text-anchor="middle" font-weight="bold" style="">×3</text><line x1="1230.0" y1="410.0" x2="1247.0" y2="410.0" stroke="#E63946" stroke-width="2" stroke-linecap="round"/><line x1="1269.0" y1="410.0" x2="1160.0" y2="410.0" stroke="none" stroke-width="0" stroke-linecap="round"/><text x="1280.0" y="414.0" font-family="DejaVu Sans, Arial, sans-serif" font-size="10" fill="#6B705C" text-anchor="start" font-weight="normal" style="">LED2</text><line x1="1160.0" y1="480.0" x2="1180.0" y2="480.0" stroke="#7B2CBF" stroke-width="2" stroke-linecap="round"/><circle cx="1160.0" cy="480.0" r="3.0" fill="#7B2CBF" stroke="none" stroke-width="1"/><polyline points="1180.0,480.0 1187.1,488.0 1194.3,472.0 1201.4,488.0 1208.6,472.0 1215.7,488.0 1222.9,472.0 1230.0,480.0" fill="none" stroke="#E63946" stroke-width="2" stroke-linejoin="round" stroke-linecap="round"/><text x="1205.0" y="468.0" font-family="DejaVu Sans, Arial, sans-serif" font-size="10" fill="#E63946" text-anchor="middle" font-weight="bold" style="">110Ω</text><circle cx="1258.0" cy="480.0" r="11.0" fill="#FFF8E7" stroke="#2A9D8F" stroke-width="2"/><text x="1258.0" y="484.0" font-family="DejaVu Sans, Arial, sans-serif" font-size="11" fill="#2A9D8F" text-anchor="middle" font-weight="bold" style="">×3</text><line x1="1230.0" y1="480.0" x2="1247.0" y2="480.0" stroke="#E63946" stroke-width="2" stroke-linecap="round"/><line x1="1269.0" y1="480.0" x2="1160.0" y2="480.0" stroke="none" stroke-width="0" stroke-linecap="round"/><text x="1280.0" y="484.0" font-family="DejaVu Sans, Arial, sans-serif" font-size="10" fill="#6B705C" text-anchor="start" font-weight="normal" style="">LED3</text><line x1="1160.0" y1="550.0" x2="1180.0" y2="550.0" stroke="#7B2CBF" stroke-width="2" stroke-linecap="round"/><circle cx="1160.0" cy="550.0" r="3.0" fill="#7B2CBF" stroke="none" stroke-width="1"/><polyline points="1180.0,550.0 1187.1,558.0 1194.3,542.0 1201.4,558.0 1208.6,542.0 1215.7,558.0 1222.9,542.0 1230.0,550.0" fill="none" stroke="#E63946" stroke-width="2" stroke-linejoin="round" stroke-linecap="round"/><text x="1205.0" y="538.0" font-family="DejaVu Sans, Arial, sans-serif" font-size="10" fill="#E63946" text-anchor="middle" font-weight="bold" style="">110Ω</text><circle cx="1258.0" cy="550.0" r="11.0" fill="#FFF8E7" stroke="#2A9D8F" stroke-width="2"/><text x="1258.0" y="554.0" font-family="DejaVu Sans, Arial, sans-serif" font-size="11" fill="#2A9D8F" text-anchor="middle" font-weight="bold" style="">×3</text><line x1="1230.0" y1="550.0" x2="1247.0" y2="550.0" stroke="#E63946" stroke-width="2" stroke-linecap="round"/><line x1="1269.0" y1="550.0" x2="1160.0" y2="550.0" stroke="none" stroke-width="0" stroke-linecap="round"/><text x="1280.0" y="554.0" font-family="DejaVu Sans, Arial, sans-serif" font-size="10" fill="#6B705C" text-anchor="start" font-weight="normal" style="">LED4</text><line x1="1160.0" y1="620.0" x2="1180.0" y2="620.0" stroke="#7B2CBF" stroke-width="2" stroke-linecap="round"/><circle cx="1160.0" cy="620.0" r="3.0" fill="#7B2CBF" stroke="none" stroke-width="1"/><polyline points="1180.0,620.0 1187.1,628.0 1194.3,612.0 1201.4,628.0 1208.6,612.0 1215.7,628.0 1222.9,612.0 1230.0,620.0" fill="none" stroke="#E63946" stroke-width="2" stroke-linejoin="round" stroke-linecap="round"/><text x="1205.0" y="608.0" font-family="DejaVu Sans, Arial, sans-serif" font-size="10" fill="#E63946" text-anchor="middle" font-weight="bold" style="">110Ω</text><circle cx="1258.0" cy="620.0" r="11.0" fill="#FFF8E7" stroke="#2A9D8F" stroke-width="2"/><text x="1258.0" y="624.0" font-family="DejaVu Sans, Arial, sans-serif" font-size="11" fill="#2A9D8F" text-anchor="middle" font-weight="bold" style="">×3</text><line x1="1230.0" y1="620.0" x2="1247.0" y2="620.0" stroke="#E63946" stroke-width="2" stroke-linecap="round"/><line x1="1269.0" y1="620.0" x2="1160.0" y2="620.0" stroke="none" stroke-width="0" stroke-linecap="round"/><text x="1280.0" y="624.0" font-family="DejaVu Sans, Arial, sans-serif" font-size="10" fill="#6B705C" text-anchor="start" font-weight="normal" style="">LED5</text><line x1="1160.0" y1="690.0" x2="1180.0" y2="690.0" stroke="#7B2CBF" stroke-width="2" stroke-linecap="round"/><circle cx="1160.0" cy="690.0" r="3.0" fill="#7B2CBF" stroke="none" stroke-width="1"/><polyline points="1180.0,690.0 1187.1,698.0 1194.3,682.0 1201.4,698.0 1208.6,682.0 1215.7,698.0 1222.9,682.0 1230.0,690.0" fill="none" stroke="#E63946" stroke-width="2" stroke-linejoin="round" stroke-linecap="round"/><text x="1205.0" y="678.0" font-family="DejaVu Sans, Arial, sans-serif" font-size="10" fill="#E63946" text-anchor="middle" font-weight="bold" style="">110Ω</text><circle cx="1258.0" cy="690.0" r="11.0" fill="#FFF8E7" stroke="#2A9D8F" stroke-width="2"/><text x="1258.0" y="694.0" font-family="DejaVu Sans, Arial, sans-serif" font-size="11" fill="#2A9D8F" text-anchor="middle" font-weight="bold" style="">×3</text><line x1="1230.0" y1="690.0" x2="1247.0" y2="690.0" stroke="#E63946" stroke-width="2" stroke-linecap="round"/><line x1="1269.0" y1="690.0" x2="1160.0" y2="690.0" stroke="none" stroke-width="0" stroke-linecap="round"/><text x="1280.0" y="694.0" font-family="DejaVu Sans, Arial, sans-serif" font-size="10" fill="#6B705C" text-anchor="start" font-weight="normal" style="">LED6</text><line x1="1160.0" y1="340.0" x2="1160.0" y2="690.0" stroke="#E63946" stroke-width="2" stroke-linecap="round"/><line x1="1160.0" y1="340.0" x2="1160.0" y2="132.0" stroke="#E63946" stroke-width="2" stroke-linecap="round"/><text x="1164.0" y="148.0" font-family="DejaVu Sans, Arial, sans-serif" font-size="10" fill="#E63946" text-anchor="start" font-weight="normal" style="">5V → 110Ω (×6)</text><rect x="470.0" y="850.0" width="240.0" height="110.0" rx="8" fill="#3A2E2A" fill-opacity="1" stroke="none" stroke-width="1"/><text x="590.0" y="874.0" font-family="DejaVu Sans, Arial, sans-serif" font-size="16" fill="#FFFFFF" text-anchor="middle" font-weight="bold" style="">DFPlayer Mini</text><text x="590.0" y="892.0" font-family="DejaVu Sans, Arial, sans-serif" font-size="10" fill="#D8C3A5" text-anchor="middle" font-weight="normal" style="">+ microSD (sin parlante)</text><line x1="500.0" y1="850.0" x2="500.0" y2="132.0" stroke="#E63946" stroke-width="2" stroke-linecap="round"/><circle cx="500.0" cy="132.0" r="3.0" fill="#E63946" stroke="none" stroke-width="1"/><text x="504.0" y="844.0" font-family="DejaVu Sans, Arial, sans-serif" font-size="10" fill="#E63946" text-anchor="start" font-weight="normal" style="">VCC→5V</text><line x1="680.0" y1="960.0" x2="680.0" y2="940.0" stroke="#222222" stroke-width="2" stroke-linecap="round"/><text x="684.0" y="974.0" font-family="DejaVu Sans, Arial, sans-serif" font-size="10" fill="#222222" text-anchor="start" font-weight="normal" style="">GND</text><line x1="580.0" y1="850.0" x2="710.0" y2="850.0" stroke="#9C6644" stroke-width="2" stroke-linecap="round"/><polyline points="590.0,820.0 595.7,828.0 601.4,812.0 607.1,828.0 612.9,812.0 618.6,828.0 624.3,812.0 630.0,820.0" fill="none" stroke="#9C6644" stroke-width="2" stroke-linejoin="round" stroke-linecap="round"/><text x="610.0" y="808.0" font-family="DejaVu Sans, Arial, sans-serif" font-size="9" fill="#9C6644" text-anchor="middle" font-weight="bold" style="">110Ω</text><text x="580.0" y="846.0" font-family="DejaVu Sans, Arial, sans-serif" font-size="10" fill="#9C6644" text-anchor="middle" font-weight="normal" style="">RX←17</text><line x1="620.0" y1="850.0" x2="680.0" y2="850.0" stroke="#9C6644" stroke-width="2" stroke-linecap="round"/><text x="645.0" y="846.0" font-family="DejaVu Sans, Arial, sans-serif" font-size="10" fill="#9C6644" text-anchor="middle" font-weight="normal" style="">TX→16</text><line x1="60.0" y1="940.0" x2="1420.0" y2="940.0" stroke="#222222" stroke-width="3" stroke-linecap="round"/><text x="64.0" y="934.0" font-family="DejaVu Sans, Arial, sans-serif" font-size="12" fill="#222222" text-anchor="start" font-weight="bold" style="">GND común (rieles − puenteados)</text><line x1="64.0" y1="974.0" x2="88.0" y2="974.0" stroke="#F77F00" stroke-width="4" stroke-linecap="round"/><text x="94.0" y="978.0" font-family="DejaVu Sans, Arial, sans-serif" font-size="11" fill="#1D3557" text-anchor="start" font-weight="normal" style="">3V3</text><line x1="145.0" y1="974.0" x2="169.0" y2="974.0" stroke="#E63946" stroke-width="4" stroke-linecap="round"/><text x="175.0" y="978.0" font-family="DejaVu Sans, Arial, sans-serif" font-size="11" fill="#1D3557" text-anchor="start" font-weight="normal" style="">5V</text><line x1="219.0" y1="974.0" x2="243.0" y2="974.0" stroke="#222222" stroke-width="4" stroke-linecap="round"/><text x="249.0" y="978.0" font-family="DejaVu Sans, Arial, sans-serif" font-size="11" fill="#1D3557" text-anchor="start" font-weight="normal" style="">GND</text><line x1="300.0" y1="974.0" x2="324.0" y2="974.0" stroke="#0077B6" stroke-width="4" stroke-linecap="round"/><text x="330.0" y="978.0" font-family="DejaVu Sans, Arial, sans-serif" font-size="11" fill="#1D3557" text-anchor="start" font-weight="normal" style="">ADC/FSR</text><line x1="409.0" y1="974.0" x2="433.0" y2="974.0" stroke="#2A9D8F" stroke-width="4" stroke-linecap="round"/><text x="439.0" y="978.0" font-family="DejaVu Sans, Arial, sans-serif" font-size="11" fill="#1D3557" text-anchor="start" font-weight="normal" style="">control LED</text><line x1="546.0" y1="974.0" x2="570.0" y2="974.0" stroke="#7B2CBF" stroke-width="4" stroke-linecap="round"/><text x="576.0" y="978.0" font-family="DejaVu Sans, Arial, sans-serif" font-size="11" fill="#1D3557" text-anchor="start" font-weight="normal" style="">potencia LED</text><line x1="690.0" y1="974.0" x2="714.0" y2="974.0" stroke="#9C6644" stroke-width="4" stroke-linecap="round"/><text x="720.0" y="978.0" font-family="DejaVu Sans, Arial, sans-serif" font-size="11" fill="#1D3557" text-anchor="start" font-weight="normal" style="">UART</text></svg>