<svg xmlns="http://www.w3.org/2000/svg" width="420.0mm" height="297.0mm" viewBox="0 0 420.0 297.0">
<rect x="0" y="0" width="420.0" height="297.0" fill="#FFFFFF"/>
<rect x="20.0" y="23.5" width="380.0" height="250.0" rx="10" fill="none" stroke="#1D3557" stroke-opacity="0.22" stroke-width="0.8"/>
<rect x="46.0" y="51.0" width="328.0" height="195.0" rx="8" fill="none" stroke="#1D3557" stroke-opacity="0.30" stroke-width="0.6" stroke-dasharray="3 2"/>
<circle cx="30.53" cy="29.16" r="2.59" fill="#F77F00" fill-opacity="0.5207086092267301"/>
<polygon points="34.16,266.31 34.82,267.90 36.53,268.03 35.23,269.15 35.63,270.83 34.16,269.93 32.69,270.83 33.09,269.15 31.78,268.03 33.50,267.90" fill="#0077B6" fill-opacity="0.5919978733015671"/>
<circle cx="45.46" cy="35.57" r="4.55" fill="#E63946" fill-opacity="0.7084389341556472"/>
<circle cx="50.92" cy="263.58" r="3.90" fill="#0077B6" fill-opacity="0.5109096489457498"/>
<polygon points="61.28,32.50 62.11,34.51 64.28,34.68 62.63,36.10 63.13,38.21 61.28,37.08 59.42,38.21 59.93,36.10 58.28,34.68 60.44,34.51" fill="#FFD60A" fill-opacity="0.6189508948170713"/>
<polygon points="66.17,260.55 66.88,262.24 68.71,262.39 67.32,263.59 67.74,265.37 66.17,264.41 64.61,265.37 65.03,263.59 63.64,262.39 65.47,262.24" fill="#F77F00" fill-opacity="0.6405609631637605"/>
<circle cx="79.49" cy="35.51" r="3.87" fill="#F77F00" fill-opacity="0.5453109168202518"/>
<path d="M 83.80 264.34 C 79.10 260.37 81.81 257.12 83.80 259.83 C 85.78 257.12 88.49 260.37 83.80 264.34 Z" fill="#0077B6" fill-opacity="0.5795481183078046"/>
<polygon points="93.84,27.01 94.53,28.68 96.33,28.82 94.96,29.99 95.38,31.74 93.84,30.80 92.31,31.74 92.72,29.99 91.36,28.82 93.15,28.68" fill="#2A9D8F" fill-opacity="0.6155432308385194"/>
<path d="M 102.62 269.51 C 97.44 265.12 100.42 261.54 102.62 264.53 C 104.81 261.54 107.79 265.12 102.62 269.51 Z" fill="#E63946" fill-opacity="0.5259744712160916"/>
<polygon points="112.31,34.04 113.58,37.11 116.90,37.37 114.37,39.54 115.15,42.77 112.31,41.04 109.47,42.77 110.24,39.54 107.72,37.37 111.03,37.11" fill="#0077B6" fill-opacity="0.5086255965504363"/>
<path d="M 115.81 269.44 C 111.54 265.83 114.00 262.87 115.81 265.33 C 117.62 262.87 120.08 265.83 115.81 269.44 Z" fill="#2A9D8F" fill-opacity="0.6307613729631041"/>
<circle cx="130.66" cy="34.05" r="4.86" fill="#0077B6" fill-opacity="0.6533492549219242"/>
<path d="M 123.46 269.62 C 118.15 265.13 121.21 261.46 123.46 264.52 C 125.70 261.46 128.76 265.13 123.46 269.62 Z" fill="#7B2CBF" fill-opacity="0.6808234530541373"/>
<path d="M 142.62 35.14 C 139.42 32.43 141.27 30.22 142.62 32.06 C 143.97 30.22 145.82 32.43 142.62 35.14 Z" fill="#0077B6" fill-opacity="0.5782021040988761"/>
<polygon points="147.19,257.75 148.35,260.55 151.37,260.79 149.07,262.76 149.77,265.71 147.19,264.13 144.60,265.71 145.31,262.76 143.01,260.79 146.03,260.55" fill="#FFD60A" fill-opacity="0.6624399435108547"/>
<rect x="157.69" y="38.81" width="5.22" height="5.22" rx="0.91" fill="#0077B6" fill-opacity="0.5883617363935469"/>
<rect x="153.97" y="251.79" width="9.29" height="9.29" rx="1.63" fill="#2A9D8F" fill-opacity="0.6554072760892304"/>
<rect x="179.74" y="32.78" width="9.78" height="9.78" rx="1.71" fill="#FFD60A" fill-opacity="0.5182566328254931"/>
<circle cx="172.94" cy="264.79" r="3.66" fill="#F77F00" fill-opacity="0.5401154322758634"/>
<path d="M 190.86 32.67 C 185.67 28.28 188.66 24.70 190.86 27.69 C 193.05 24.70 196.04 28.28 190.86 32.67 Z" fill="#2A9D8F" fill-opacity="0.7096815436155209"/>
<circle cx="196.58" cy="262.50" r="3.59" fill="#7B2CBF" fill-opacity="0.6755320866632445"/>
<circle cx="208.49" cy="33.13" r="3.65" fill="#0077B6" fill-opacity="0.5136945207561112"/>
<polygon points="203.94,254.90 204.65,256.61 206.50,256.76 205.09,257.96 205.52,259.76 203.94,258.80 202.36,259.76 202.79,257.96 201.39,256.76 203.23,256.61" fill="#F77F00" fill-opacity="0.5115666328558587"/>
<circle cx="219.09" cy="29.17" r="4.87" fill="#F77F00" fill-opacity="0.505610195066552"/>
<polygon points="231.33,260.03 232.40,262.60 235.18,262.82 233.06,264.64 233.71,267.35 231.33,265.90 228.95,267.35 229.60,264.64 227.48,262.82 230.26,262.60" fill="#2A9D8F" fill-opacity="0.6325014215716418"/>
<rect x="236.84" y="23.61" width="9.96" height="9.96" rx="1.74" fill="#0077B6" fill-opacity="0.6056869230154427"/>
<path d="M 239.55 260.45 C 233.93 255.69 237.17 251.80 239.55 255.04 C 241.93 251.80 245.17 255.69 239.55 260.45 Z" fill="#0077B6" fill-opacity="0.6823481831867433"/>
<path d="M 253.53 29.62 C 249.92 26.56 252.00 24.06 253.53 26.15 C 255.06 24.06 257.15 26.56 253.53 29.62 Z" fill="#F77F00" fill-opacity="0.7011120722141068"/>
<circle cx="261.89" cy="259.02" r="4.21" fill="#2A9D8F" fill-opacity="0.6140473085692074"/>
<polygon points="280.08,28.66 281.08,31.06 283.68,31.27 281.70,32.97 282.30,35.50 280.08,34.14 277.85,35.50 278.46,32.97 276.48,31.27 279.08,31.06" fill="#F77F00" fill-opacity="0.5725262989105078"/>
<polygon points="270.49,262.74 271.68,265.60 274.76,265.84 272.41,267.86 273.13,270.87 270.49,269.26 267.84,270.87 268.56,267.86 266.21,265.84 269.30,265.60" fill="#0077B6" fill-opacity="0.6627720644826571"/>
<path d="M 286.63 38.90 C 281.04 34.17 284.26 30.30 286.63 33.53 C 288.99 30.30 292.22 34.17 286.63 38.90 Z" fill="#E63946" fill-opacity="0.6738251100590235"/>
<path d="M 290.07 260.55 C 285.43 256.64 288.11 253.43 290.07 256.10 C 292.03 253.43 294.70 256.64 290.07 260.55 Z" fill="#7B2CBF" fill-opacity="0.7173683728046292"/>
<polygon points="312.92,29.92 313.62,31.61 315.45,31.76 314.06,32.95 314.48,34.74 312.92,33.78 311.35,34.74 311.77,32.95 310.38,31.76 312.21,31.61" fill="#0077B6" fill-opacity="0.5432753559522497"/>
<circle cx="302.41" cy="264.24" r="3.65" fill="#7B2CBF" fill-opacity="0.5756815184348942"/>
<circle cx="324.64" cy="40.10" r="4.77" fill="#7B2CBF" fill-opacity="0.6650309011627008"/>
<path d="M 322.33 259.47 C 318.92 256.58 320.88 254.22 322.33 256.19 C 323.77 254.22 325.74 256.58 322.33 259.47 Z" fill="#7B2CBF" fill-opacity="0.5870844689152785"/>
<polygon points="337.35,39.06 338.10,40.86 340.05,41.02 338.56,42.29 339.02,44.20 337.35,43.18 335.68,44.20 336.13,42.29 334.64,41.02 336.59,40.86" fill="#FFD60A" fill-opacity="0.5060607471559432"/>
<polygon points="340.00,257.71 341.05,260.24 343.79,260.46 341.71,262.25 342.34,264.92 340.00,263.49 337.65,264.92 338.29,262.25 336.20,260.46 338.94,260.24" fill="#F77F00" fill-opacity="0.7156673075583466"/>
<polygon points="357.02,29.90 357.67,31.46 359.36,31.60 358.07,32.70 358.46,34.34 357.02,33.46 355.58,34.34 355.97,32.70 354.68,31.60 356.37,31.46" fill="#7B2CBF" fill-opacity="0.6429284273282427"/>
<rect x="350.23" y="264.22" width="9.93" height="9.93" rx="1.74" fill="#FFD60A" fill-opacity="0.6817541553993486"/>
<path d="M 366.86 34.11 C 362.05 30.04 364.83 26.71 366.86 29.48 C 368.90 26.71 371.68 30.04 366.86 34.11 Z" fill="#F77F00" fill-opacity="0.5717176477392036"/>
<circle cx="371.53" cy="267.60" r="4.77" fill="#2A9D8F" fill-opacity="0.6974948802649633"/>
<rect x="384.72" y="35.24" width="9.10" height="9.10" rx="1.59" fill="#F77F00" fill-opacity="0.5287679169848672"/>
<rect x="377.71" y="258.00" width="8.84" height="8.84" rx="1.55" fill="#F77F00" fill-opacity="0.5008651460016412"/>
<rect x="30.68" y="49.09" width="8.02" height="8.02" rx="1.40" fill="#E63946" fill-opacity="0.6224246374784869"/>
<rect x="382.62" y="54.89" width="8.88" height="8.88" rx="1.55" fill="#E63946" fill-opacity="0.6943101191763963"/>
<circle cx="24.30" cy="69.72" r="4.41" fill="#F77F00" fill-opacity="0.599478703912947"/>
<circle cx="382.89" cy="82.36" r="3.55" fill="#F77F00" fill-opacity="0.7141392553688711"/>
<path d="M 31.99 89.35 C 27.34 85.42 30.02 82.20 31.99 84.88 C 33.95 82.20 36.63 85.42 31.99 89.35 Z" fill="#F77F00" fill-opacity="0.6776196714130639"/>
<path d="M 389.61 91.32 C 383.37 86.04 386.97 81.72 389.61 85.32 C 392.25 81.72 395.85 86.04 389.61 91.32 Z" fill="#FFD60A" fill-opacity="0.6847999523465053"/>
<rect x="22.20" y="97.79" width="6.44" height="6.44" rx="1.13" fill="#7B2CBF" fill-opacity="0.5529405268597194"/>
<circle cx="383.52" cy="110.87" r="4.73" fill="#FFD60A" fill-opacity="0.7066910248812017"/>
<path d="M 32.51 125.91 C 26.40 120.74 29.93 116.52 32.51 120.04 C 35.09 116.52 38.61 120.74 32.51 125.91 Z" fill="#0077B6" fill-opacity="0.5483093227764223"/>
<rect x="393.01" y="119.44" width="5.65" height="5.65" rx="0.99" fill="#7B2CBF" fill-opacity="0.6831378272862485"/>
<rect x="22.48" y="135.85" width="6.56" height="6.56" rx="1.15" fill="#FFD60A" fill-opacity="0.5784552545106085"/>
<path d="M 383.79 141.41 C 378.80 137.18 381.68 133.73 383.79 136.61 C 385.90 133.73 388.78 137.18 383.79 141.41 Z" fill="#0077B6" fill-opacity="0.6546933025418076"/>
<path d="M 28.88 160.31 C 24.03 156.20 26.83 152.85 28.88 155.64 C 30.93 152.85 33.73 156.20 28.88 160.31 Z" fill="#E63946" fill-opacity="0.5248269907885664"/>
<circle cx="395.36" cy="151.75" r="2.62" fill="#2A9D8F" fill-opacity="0.5087094017810949"/>
<polygon points="34.41,164.25 35.60,167.13 38.72,167.38 36.35,169.41 37.07,172.44 34.41,170.82 31.74,172.44 32.47,169.41 30.10,167.38 33.21,167.13" fill="#7B2CBF" fill-opacity="0.6801753755518819"/>
<rect x="381.90" y="162.38" width="8.44" height="8.44" rx="1.48" fill="#E63946" fill-opacity="0.5613937062968003"/>
<circle cx="34.69" cy="183.48" r="3.10" fill="#E63946" fill-opacity="0.6395766913852431"/>
<polygon points="393.72,179.12 394.40,180.75 396.17,180.89 394.82,182.05 395.24,183.77 393.72,182.85 392.21,183.77 392.62,182.05 391.28,180.89 393.04,180.75" fill="#E63946" fill-opacity="0.5998301746140434"/>
<path d="M 28.25 210.02 C 23.03 205.61 26.04 201.99 28.25 205.00 C 30.46 201.99 33.47 205.61 28.25 210.02 Z" fill="#E63946" fill-opacity="0.6159213058359778"/>
<polygon points="385.84,195.34 386.65,197.30 388.77,197.47 387.16,198.85 387.65,200.92 385.84,199.81 384.03,200.92 384.52,198.85 382.91,197.47 385.02,197.30" fill="#FFD60A" fill-opacity="0.54438901472907"/>
<polygon points="27.87,215.06 28.70,217.07 30.87,217.24 29.22,218.66 29.72,220.77 27.87,219.64 26.01,220.77 26.52,218.66 24.87,217.24 27.03,217.07" fill="#F77F00" fill-opacity="0.6478745838935522"/>
<path d="M 386.29 229.44 C 383.04 226.69 384.91 224.45 386.29 226.32 C 387.66 224.45 389.53 226.69 386.29 229.44 Z" fill="#E63946" fill-opacity="0.6612776843551089"/>
<rect x="28.18" y="229.37" width="6.08" height="6.08" rx="1.06" fill="#0077B6" fill-opacity="0.5233818959059601"/>
<rect x="390.15" y="232.96" width="7.64" height="7.64" rx="1.34" fill="#0077B6" fill-opacity="0.7134687275549092"/>
<circle cx="128.0" cy="116.0" r="30" fill="#E63946" fill-opacity="0.10"/>
<circle cx="128.0" cy="116.0" r="28.0" fill="#E63946" fill-opacity="0.45" stroke="#E63946" stroke-width="3"/>
<text x="128.0" y="125.20" font-family="DejaVu Sans, Arial, sans-serif" font-size="26" font-weight="bold" fill="#1D3557" text-anchor="middle">1</text>
<circle cx="210.0" cy="116.0" r="30" fill="#FFD60A" fill-opacity="0.10"/>
<circle cx="210.0" cy="116.0" r="28.0" fill="#FFD60A" fill-opacity="0.45" stroke="#FFD60A" stroke-width="3"/>
<text x="210.0" y="125.20" font-family="DejaVu Sans, Arial, sans-serif" font-size="26" font-weight="bold" fill="#1D3557" text-anchor="middle">2</text>
<circle cx="292.0" cy="116.0" r="30" fill="#2A9D8F" fill-opacity="0.10"/>
<circle cx="292.0" cy="116.0" r="28.0" fill="#2A9D8F" fill-opacity="0.45" stroke="#2A9D8F" stroke-width="3"/>
<text x="292.0" y="125.20" font-family="DejaVu Sans, Arial, sans-serif" font-size="26" font-weight="bold" fill="#1D3557" text-anchor="middle">3</text>
<circle cx="128.0" cy="181.0" r="30" fill="#0077B6" fill-opacity="0.10"/>
<circle cx="128.0" cy="181.0" r="28.0" fill="#0077B6" fill-opacity="0.45" stroke="#0077B6" stroke-width="3"/>
<text x="128.0" y="190.20" font-family="DejaVu Sans, Arial, sans-serif" font-size="26" font-weight="bold" fill="#1D3557" text-anchor="middle">4</text>
<circle cx="210.0" cy="181.0" r="30" fill="#F77F00" fill-opacity="0.10"/>
<circle cx="210.0" cy="181.0" r="28.0" fill="#F77F00" fill-opacity="0.45" stroke="#F77F00" stroke-width="3"/>
<text x="210.0" y="190.20" font-family="DejaVu Sans, Arial, sans-serif" font-size="26" font-weight="bold" fill="#1D3557" text-anchor="middle">5</text>
<circle cx="292.0" cy="181.0" r="30" fill="#7B2CBF" fill-opacity="0.10"/>
<circle cx="292.0" cy="181.0" r="28.0" fill="#7B2CBF" fill-opacity="0.45" stroke="#7B2CBF" stroke-width="3"/>
<text x="292.0" y="190.20" font-family="DejaVu Sans, Arial, sans-serif" font-size="26" font-weight="bold" fill="#1D3557" text-anchor="middle">6</text>
<line x1="14.00" y1="18.50" x2="8.00" y2="18.50" stroke="#1D3557" stroke-width="0.3"/>
<line x1="15.00" y1="17.50" x2="15.00" y2="11.50" stroke="#1D3557" stroke-width="0.3"/>
<line x1="406.00" y1="18.50" x2="412.00" y2="18.50" stroke="#1D3557" stroke-width="0.3"/>
<line x1="405.00" y1="17.50" x2="405.00" y2="11.50" stroke="#1D3557" stroke-width="0.3"/>
<line x1="14.00" y1="278.50" x2="8.00" y2="278.50" stroke="#1D3557" stroke-width="0.3"/>
<line x1="15.00" y1="279.50" x2="15.00" y2="285.50" stroke="#1D3557" stroke-width="0.3"/>
<line x1="406.00" y1="278.50" x2="412.00" y2="278.50" stroke="#1D3557" stroke-width="0.3"/>
<line x1="405.00" y1="279.50" x2="405.00" y2="285.50" stroke="#1D3557" stroke-width="0.3"/>
<line x1="160.0" y1="285.0" x2="260.0" y2="285.0" stroke="#1D3557" stroke-width="0.4"/>
<line x1="160.0" y1="282.4" x2="160.0" y2="287.6" stroke="#1D3557" stroke-width="0.4"/>
<line x1="170.0" y1="283.6" x2="170.0" y2="286.4" stroke="#1D3557" stroke-width="0.4"/>
<line x1="180.0" y1="283.6" x2="180.0" y2="286.4" stroke="#1D3557" stroke-width="0.4"/>
<line x1="190.0" y1="283.6" x2="190.0" y2="286.4" stroke="#1D3557" stroke-width="0.4"/>
<line x1="200.0" y1="283.6" x2="200.0" y2="286.4" stroke="#1D3557" stroke-width="0.4"/>
<line x1="210.0" y1="283.6" x2="210.0" y2="286.4" stroke="#1D3557" stroke-width="0.4"/>
<line x1="220.0" y1="283.6" x2="220.0" y2="286.4" stroke="#1D3557" stroke-width="0.4"/>
<line x1="230.0" y1="283.6" x2="230.0" y2="286.4" stroke="#1D3557" stroke-width="0.4"/>
<line x1="240.0" y1="283.6" x2="240.0" y2="286.4" stroke="#1D3557" stroke-width="0.4"/>
<line x1="250.0" y1="283.6" x2="250.0" y2="286.4" stroke="#1D3557" stroke-width="0.4"/>
<line x1="260.0" y1="282.4" x2="260.0" y2="287.6" stroke="#1D3557" stroke-width="0.4"/>
<text x="210.0" y="281.8" font-family="DejaVu Sans, Arial, sans-serif" font-size="3.2" fill="#1D3557" text-anchor="middle">CALIBRACIÓN 100 mm — medir con regla; debe dar 100 mm exactos</text>
<text x="210.0" y="9.5" font-family="DejaVu Sans, Arial, sans-serif" font-size="3.4" font-weight="bold" fill="#1D3557" text-anchor="middle">TAPETE INTERACTIVO — plantilla a escala real 39 × 26 cm.  IMPRIMIR AL 100% / TAMAÑO REAL — NO usar “ajustar a página”.  Recortar por las marcas.</text>
<text x="210.0" y="14.2" font-family="DejaVu Sans, Arial, sans-serif" font-size="3.0" fill="#1D3557" text-anchor="middle">Acetato A3 · alinear cada círculo sobre su grupo de LEDs (el borde es decorativo) · verificar la regla de 100 mm antes de montar.</text>
</svg>